<?xml version="1.0" encoding="utf-8"?>
<!-- Generator: Adobe Illustrator 25.2.3, SVG Export Plug-In . SVG Version: 6.00 Build 0)  -->
<svg version="1.1" id="Capa_1" xmlns="http://www.w3.org/2000/svg" xmlns:xlink="http://www.w3.org/1999/xlink" x="0px" y="0px"
	 viewBox="0 0 867.41 361.52" style="enable-background:new 0 0 867.41 361.52;" xml:space="preserve">
<style type="text/css">
	.st0{fill:#D7B36A;stroke:#D7B36A;stroke-width:0.425;stroke-miterlimit:1;}
	.st1{fill:#D7B36A;stroke:#D7B36A;stroke-width:0.2549;stroke-miterlimit:1;}
	.st2{fill:#D7B36A;}
</style>
<g>
	<g>
		<g>
			<path class="st0" d="M397.47,72.98l5.13-9.44c0.29-0.55,0.54-1.09,0.75-1.64s0.35-1.04,0.41-1.48c0.06-0.44,0.06-0.81-0.02-1.12
				c-0.08-0.3-0.27-0.51-0.56-0.6h4.84c-0.87,0.45-1.68,1.08-2.42,1.89c-0.74,0.8-1.58,2.06-2.52,3.77l-5.18,9.44l7.16,13.12
				c0.74,1.39,1.52,2.58,2.32,3.58c0.81,1,1.63,1.7,2.47,2.08h-8.13c0.42-0.39,0.61-0.99,0.58-1.81c-0.03-0.83-0.37-1.84-1.02-3.03
				l-6.15-11.28L389,87.75c-0.29,0.55-0.54,1.09-0.75,1.64c-0.21,0.55-0.35,1.04-0.41,1.48c-0.06,0.44-0.06,0.8,0.03,1.11
				c0.08,0.31,0.27,0.51,0.56,0.61h-4.84c0.87-0.45,1.68-1.08,2.42-1.89c0.74-0.81,1.58-2.06,2.52-3.78l6.2-11.23l-6.2-11.33
				c-0.74-1.38-1.52-2.58-2.32-3.58c-0.81-1-1.63-1.69-2.47-2.08h8.13c-0.42,0.39-0.61,0.99-0.58,1.81
				c0.03,0.82,0.37,1.83,1.02,3.03L397.47,72.98z"/>
			<path class="st0" d="M436.29,64.37c-0.52-1.38-1.12-2.57-1.82-3.53c-0.69-0.97-1.48-1.68-2.35-2.13h7.84
				c-0.48,0.39-0.72,0.99-0.72,1.81s0.23,1.83,0.68,3.03l9.49,25.41l9.2-25.41c0.45-1.19,0.69-2.26,0.72-3.19
				c0.03-0.93-0.23-1.48-0.77-1.64h4.69c-0.87,0.45-1.65,1.16-2.35,2.13c-0.69,0.97-1.3,2.15-1.81,3.53l-10.26,28.22h-1.98
				L436.29,64.37z"/>
			<path class="st0" d="M500.49,92.59c0.87-0.45,1.65-1.16,2.35-2.13c0.69-0.97,1.3-2.15,1.82-3.54l9.73-26.38
				c-0.42-0.9-0.82-1.52-1.21-1.84h4.5l10.41,28.22c0.52,1.39,1.12,2.57,1.82,3.54c0.69,0.97,1.48,1.68,2.35,2.13h-7.84
				c0.48-0.39,0.73-0.99,0.73-1.81c0-0.83-0.23-1.84-0.68-3.03l-2.08-5.67c-0.06,0.23-0.17,0.52-0.32,0.87
				c-0.14,0.35-0.38,0.7-0.7,1.04c-0.32,0.34-0.76,0.63-1.31,0.87c-0.55,0.24-1.23,0.36-2.03,0.36c-1,0-1.81-0.18-2.44-0.53
				s-1.21-0.74-1.74-1.14c-0.53-0.4-1.08-0.78-1.64-1.14c-0.56-0.35-1.25-0.53-2.06-0.53c-0.58,0-1.1,0.1-1.55,0.29
				s-0.83,0.44-1.14,0.73c-0.31,0.29-0.56,0.6-0.75,0.92c-0.19,0.32-0.34,0.63-0.43,0.92l-1.11,3c-0.45,1.19-0.69,2.26-0.72,3.19
				c-0.03,0.93,0.23,1.48,0.77,1.64H500.49z M515.55,63.55c-0.16-0.39-0.3-0.75-0.41-1.09c-0.11-0.34-0.23-0.65-0.36-0.94
				l-7.65,20.82c0.35-0.32,0.77-0.6,1.26-0.82s1.06-0.34,1.74-0.34c0.87,0,1.61,0.18,2.23,0.53c0.61,0.36,1.2,0.74,1.77,1.14
				c0.56,0.41,1.15,0.78,1.77,1.14c0.61,0.35,1.34,0.53,2.18,0.53c0.71,0,1.32-0.14,1.84-0.41c0.52-0.27,0.92-0.62,1.21-1.04
				c0.29-0.42,0.48-0.89,0.58-1.41c0.1-0.52,0.08-1-0.05-1.45L515.55,63.55z"/>
			<path class="st0" d="M563.6,60.52c-0.29-0.82-0.76-1.43-1.4-1.81h4.99l16.8,30.25c0.06,0.06,0.13,0.16,0.19,0.27
				c0.06,0.11,0.13,0.17,0.19,0.17c0.13,0,0.19-0.26,0.19-0.77V63.55c0-1.19-0.14-2.2-0.43-3.03s-0.76-1.43-1.4-1.81h4.41
				c-0.65,0.39-1.11,0.99-1.4,1.81s-0.43,1.83-0.43,3.03v29.04h-3.58l-16.84-30.45c-0.03,0.23-0.06,0.45-0.07,0.68
				c-0.02,0.23-0.02,0.47-0.02,0.73v24.21c0,1.19,0.16,2.2,0.48,3.03c0.32,0.82,0.87,1.43,1.65,1.81h-4.99
				c0.77-0.39,1.32-0.99,1.65-1.81c0.32-0.83,0.48-1.84,0.48-3.03V63.55C564.03,62.35,563.89,61.34,563.6,60.52z"/>
			<path class="st0" d="M613.27,75.65c0-2.61,0.4-5,1.21-7.16c0.8-2.16,1.95-4.02,3.44-5.57c1.48-1.55,3.27-2.74,5.35-3.58
				c2.08-0.84,4.4-1.26,6.95-1.26s4.86,0.42,6.95,1.26c2.08,0.84,3.86,2.03,5.35,3.58c1.48,1.55,2.63,3.4,3.44,5.57
				c0.81,2.16,1.21,4.55,1.21,7.16c0,2.65-0.4,5.05-1.21,7.21c-0.81,2.16-1.95,4.01-3.44,5.54c-1.48,1.53-3.27,2.72-5.35,3.56
				c-2.08,0.84-4.4,1.26-6.95,1.26s-4.86-0.42-6.95-1.26c-2.08-0.84-3.86-2.03-5.35-3.56c-1.48-1.54-2.63-3.38-3.44-5.54
				C613.67,80.7,613.27,78.29,613.27,75.65z M617.43,79.76c0.65,2,1.45,3.77,2.42,5.32c0.97,1.55,2.06,2.87,3.27,3.95
				c1.21,1.08,2.52,1.9,3.92,2.47c1.4,0.57,2.86,0.85,4.38,0.85c1.29,0,2.65-0.23,4.07-0.68c1.9-0.61,3.51-1.56,4.82-2.85
				c1.31-1.29,2.28-2.82,2.93-4.57c0.64-1.76,0.95-3.73,0.92-5.91c-0.03-2.18-0.44-4.48-1.21-6.9c-0.64-1.93-1.44-3.68-2.4-5.23
				c-0.95-1.55-2.03-2.86-3.24-3.94c-1.21-1.08-2.52-1.9-3.92-2.47c-1.4-0.56-2.86-0.85-4.38-0.85c-1.23,0-2.55,0.23-3.97,0.68
				c-1.94,0.64-3.57,1.61-4.89,2.88c-1.32,1.27-2.32,2.79-2.98,4.55c-0.66,1.76-0.98,3.72-0.94,5.88
				C616.25,75.1,616.65,77.37,617.43,79.76z"/>
			<path class="st0" d="M677.11,65.29c0,1.22,0.31,2.26,0.94,3.1c0.63,0.84,1.46,1.55,2.49,2.13c1.03,0.58,2.21,1.09,3.53,1.52
				s2.66,0.87,4.03,1.31c1.37,0.44,2.71,0.9,4.03,1.38c1.32,0.48,2.5,1.09,3.53,1.81c1.03,0.73,1.86,1.61,2.49,2.64
				c0.63,1.03,0.94,2.29,0.94,3.77c0,1.45-0.33,2.81-0.98,4.07c-0.65,1.26-1.59,2.35-2.81,3.27c-1.22,0.92-2.69,1.64-4.42,2.15
				c-1.73,0.52-3.65,0.77-5.78,0.77c-1.06,0-2.15-0.11-3.24-0.34c-1.1-0.23-2.14-0.57-3.12-1.04c-0.99-0.47-1.88-1.06-2.69-1.79
				c-0.81-0.73-1.44-1.61-1.89-2.64c-0.1-0.23-0.06-0.38,0.12-0.46c0.18-0.08,0.35-0.01,0.51,0.22c1.03,1.65,2.41,2.94,4.14,3.87
				c1.73,0.93,3.75,1.4,6.07,1.4c1.71,0,3.24-0.2,4.57-0.6c1.34-0.41,2.48-0.96,3.41-1.67c0.94-0.71,1.65-1.55,2.13-2.52
				c0.48-0.97,0.72-2,0.72-3.1c0-1.19-0.31-2.2-0.94-3.03c-0.63-0.82-1.46-1.53-2.49-2.13s-2.21-1.13-3.53-1.6
				c-1.32-0.47-2.68-0.93-4.07-1.38c-1.39-0.45-2.74-0.94-4.07-1.48c-1.32-0.53-2.5-1.18-3.53-1.93c-1.03-0.76-1.86-1.66-2.49-2.71
				c-0.63-1.05-0.94-2.32-0.94-3.8c0-1.64,0.39-3.01,1.16-4.09c0.77-1.08,1.76-1.94,2.95-2.59s2.52-1.1,3.97-1.35
				c1.45-0.26,2.86-0.39,4.21-0.39c2.26,0,4.15,0.29,5.69,0.87c1.53,0.58,2.69,1.18,3.46,1.79l0.05,5.23c0,0.13-0.06,0.19-0.17,0.17
				c-0.11-0.01-0.17-0.09-0.17-0.22c-0.19-2.1-1.05-3.81-2.56-5.13c-1.52-1.32-3.62-1.98-6.29-1.98c-1.45,0-2.74,0.17-3.85,0.51
				c-1.11,0.34-2.05,0.8-2.81,1.38c-0.76,0.58-1.33,1.27-1.72,2.06C677.31,63.54,677.11,64.38,677.11,65.29z"/>
		</g>
		<g>
			<path class="st1" d="M571.72,49.76c0.54,0.08,1.06,0.22,1.56,0.41l3.15,1.23c0.48,0.19,0.88,0.33,1.19,0.43
				c0.5,0.14,0.94,0.21,1.32,0.21c0.69,0,1.28-0.27,1.76-0.81c0.48-0.55,0.81-1.22,0.98-2.01h1.64c-0.24,1.34-0.7,2.57-1.4,3.67
				c-0.69,1.11-1.75,1.66-3.16,1.66c-0.43,0-0.93-0.09-1.52-0.26c-0.34-0.1-0.85-0.29-1.52-0.54l-2.9-1.1
				c-0.36-0.14-0.73-0.25-1.11-0.33c-0.38-0.07-0.7-0.11-0.95-0.11c-0.79,0-1.42,0.31-1.87,0.92c-0.27,0.36-0.54,0.97-0.81,1.83
				h-1.66c0.16-0.79,0.34-1.45,0.53-2.01c0.19-0.55,0.52-1.18,0.99-1.88c0.4-0.47,0.83-0.82,1.29-1.05c0.46-0.23,1-0.34,1.61-0.34
				C571.13,49.69,571.42,49.71,571.72,49.76z"/>
		</g>
	</g>
	<g>
		<path class="st2" d="M505.69,276.99c1.88-1.66,3.51-4.09,3.41-5.09c-0.17-1.64-2.37-3.04-7.28-4.63
			c-5.62-1.82-12.34-2.52-17.46-1.8c-3.13,0.44-6.98,1.45-10.89,2.88c-5.31,1.94-6.6,2.69-13.6,7.9c-3.22,2.4-5.22,3.64-8.41,5.25
			c-4.12,2.07-4.24,2.11-7.73,2.44c-12.97,1.24-25.93-0.36-40-4.91c-8.1-2.62-13.9-5.02-21.4-8.83c-4.25-2.16-4.87-2.37-5.59-1.84
			c-0.73,0.54-0.7,1.52,0.08,2.35c0.79,0.83,5.06,3.41,8.72,5.25c6.96,3.51,17.28,7.07,26.08,9l2.95,0.65l2.85,2.8
			c2.25,2.21,3.95,3.6,8.03,6.58c7.31,5.33,12.44,8.15,18.04,9.91c3.51,1.1,9.71,2.03,13.25,1.98c5.46-0.07,16.69-2.46,17.63-3.75
			c0.2-0.28,0.31-0.85,0.22-1.25c-0.13-0.64-0.45-0.92-2.48-2.2c-7.41-4.67-17.13-8.54-28.22-11.22l-3.98-0.96l3.76-0.42
			c2.07-0.23,5.74-0.75,8.16-1.16l4.4-0.75l2.42,0.93c7.97,3.08,20.66,3.39,29.09,0.7C494.89,284.52,500.77,281.31,505.69,276.99
			L505.69,276.99z M505.25,271.59c1.23,0.71,1.26,0.76,0.86,1.26c-2.34,2.98-9.37,7.33-15.47,9.57c-6.28,2.3-11.26,3.09-18.67,2.95
			c-3.25-0.06-10.61-0.95-10.39-1.25c0.05-0.07,1.97-0.57,4.3-1.12c7.24-1.7,18.35-4.66,20.69-5.5c2.17-0.79,2.95-1.34,2.71-1.94
			c-0.22-0.53-4.17,0.17-15.05,2.69c-9.33,2.15-12.86,2.91-20.09,4.32l-1.75,0.34l2-0.75c2.36-0.88,3.77-1.73,8.92-5.35
			c4.69-3.3,6.38-4.23,10.33-5.68c6.64-2.44,11.67-3.41,16.73-3.24C495.05,268.05,502.23,269.83,505.25,271.59L505.25,271.59z
			 M469.3,301.18c0.37,0.22,0.61,0.48,0.53,0.58c-0.21,0.29-5.49,1.38-8.8,1.81c-3.84,0.5-6.67,0.47-10.77-0.14
			c-7.52-1.12-13.46-3.81-24.07-10.91c-3.34-2.24-7.74-5.73-6.45-5.12c0.22,0.1,2.12,1.03,4.23,2.06
			c10.39,5.09,24.42,9.78,30.39,10.15c2.14,0.13,1.75-0.41-0.81-1.15c-5.58-1.6-26.68-10.13-27.33-11.04
			c-0.34-0.48,3.61,0.29,12.19,2.39c9.82,2.39,14.91,3.95,21.06,6.45C463.12,297.74,465.17,298.76,469.3,301.18L469.3,301.18z"/>
		<g>
			<path class="st2" d="M524.53,200.28c-6.23,15.21-24.41,39.88-42.22,42.18c-31.21,3.82-12.02-62.25,3.65-85.98
				c1.15-1.67,3.75-1.51,5.74-0.95c1.89,0.54,2.98,1.75,3.9,3.49c0.57,1.11,1.59,2.97,0.79,4.28
				c-12.32,19.11-31.82,70.17-17.12,72.83c-0.02,0,0.1,0.01-0.04,0c16.63,1.84,36.57-21.61,41.36-37.25c0.34-1.1,1.5-1.72,2.6-1.38
				C524.38,197.87,524.99,199.16,524.53,200.28z M498.36,136.13c0-3.99,3.23-7.22,7.22-7.22c3.99,0,7.22,3.23,7.22,7.22
				c0,3.99-3.23,7.22-7.22,7.22C501.59,143.35,498.36,140.12,498.36,136.13z"/>
			<path class="st2" d="M607.6,200.24c-0.25,0.67-5.79,12.1-10.34,20.46c-6.7,12.09-17.21,28.38-30.79,30.83
				c-16.95,3.06-18.97-12.74-15.97-29.77c-4.48,6.3-10.42,12.5-18.04,13.8c-20.97,3.5-20.08-25.31-14.05-44.06
				c15.27-46.71,55.8-44.77,57.02-19.65c0.06,1.15-0.83,2.13-1.98,2.19c-1.27,0.06-2.35-1.03-2.17-2.37
				c1.29-9.5-15.34-24.41-34.77,9.77c-8.07,13.93-19.81,47.28-6.42,48.07c9.34,1.19,18.08-10.32,22.82-18.4
				c2.18-8.7,8.24-24.7,13.56-32.07c1.96-2.78,5.88-3.5,8.73-1.46c2.6,1.86,3.35,5.36,1.84,8.1c-6.45,11.71-24.1,43.62-19.26,56.79
				c3.4,9.09,27.77,5,45.93-43.67C604.6,196.22,608.57,197.63,607.6,200.24z"/>
			<path class="st2" d="M627.88,146.87c5,0,9.04-4.05,9.04-9.05c0-4.99-4.05-9.04-9.04-9.04c-4.99,0-9.04,4.05-9.04,9.04
				C618.84,142.82,622.88,146.87,627.88,146.87z"/>
			<path class="st2" d="M640.63,214.37c-10.58,11.76-24.41,20.75-38.67,27.29c16.05-40.37,22-63.2,26.85-82.78
				c0.14-0.61,0.26-0.86-0.41-1.61c-0.78-0.95-2.54-2.15-4.78-2.61c-4.82-1-6.62,0.17-7.44,2.6
				c-18.86,57.37-19.15,62.33-30.02,91.76c-59.1,30.32-78.35,77.34-54.02,81.44c29.32,5.22,57.01-57.08,68.27-84.9
				c15.21-6.64,30.11-15.78,41.78-27.87C641.4,216.7,640.89,215.57,640.63,214.37z M529.23,324.27
				c-9.04-4.92,2.96-43.18,55.39-71.15C575.61,277.09,553.15,334.25,529.23,324.27z"/>
			<path class="st2" d="M709.12,200.22c-0.22,0.62-0.79,1.9-1.32,2.9c-6.73,12.85-20.98,14.27-29.53,7.87
				c-3.9,10.27-11.53,23.79-21.91,27.14c-26.67,8.57-25.98-59.07,2.55-79.06c11.65-8.03,30.37-7.26,23.48,20.85
				c-0.27,1.12-1.4,1.81-2.52,1.53c-1.24-0.3-1.96-1.66-1.41-2.89c3.7-8.12,2.21-16.85-2.75-18.24c-2.66-0.76-7.18,0.33-11.14,5.18
				c-11.41,13.95-29.22,71.7-9.52,67.76c9.15-1.79,17.18-15.93,20.65-24.64c-7.71-8.66-6.27-24.32,0.75-25.4
				c0.57-0.07,0.96-0.06,0.9-0.06c7.98,0.31,5.31,15.29,2.01,24.89c6.79,5.66,20.68,5.45,25.83-9.15
				C706.16,196.17,710.03,197.66,709.12,200.22z M679.67,192.71c0.42-7.16-2.43-6.72-2.43-6.72c-4.23,0.12-5.94,11.86-0.36,19.43
				C678.19,201.56,679.43,196.83,679.67,192.71z"/>
			<path class="st2" d="M760.33,200.24c-6.47,17.07-26.92,27.64-42.81,35.87c1,35.19-8.98,55.56-20.14,66.73
				c-20.6,20.52-45.8,12.06-41.24-13.82c2.95-16.34,15.31-30.87,30.25-39.82c5.99-3.43,11.84-6.44,17.44-9.25
				c-0.32-8.99-1.07-22.91-0.37-40c0.64-12.87,2.11-35.08,13.44-42.64c6.06-4.1,18.03-3.97,19.49,10.27
				c1.23,13.66-7.9,23.91-8.46,24.74c-1.82,2.3-5.26-0.76-3.05-2.83c11.83-10.93,9.87-31.69-0.83-28.75c0.14-0.03-0.01,0.01,0,0.01
				c-8.63,2.81-8.11,21.98-6.62,72.3c17.07-8.81,32.69-17.51,39-34.29C757.41,196.19,761.31,197.66,760.33,200.24z M703.93,243.18
				c-6.64,3.53-8.26,4.46-12.56,6.89c-29.96,17.15-36.59,46.63-25.04,55.18c0,0,0.15,0.12,0.03,0.02
				C677.26,311.8,704.7,294.25,703.93,243.18z"/>
			<path class="st2" d="M813.2,200.1c-0.27,0.83-3.02,5.89-4.43,8.15c-8.09,12.97-21.03,22.14-36.05,22.99
				c-41.31,4.29-17.14-71.88,9.61-78.59c21.68-4.89,11.99,34.18-17.9,44.43c-2.17,8.53-5.07,23.3,2.96,26.55
				c15.69,5.81,35.07-4.09,41.83-24.79C810.13,196.14,814.04,197.51,813.2,200.1z M765.69,192.54
				c15.88-5.69,23.51-22.53,23.08-30.12c-0.08-1.53-1.52-4.53-5.05-2.77C775.31,163.85,768.19,184.21,765.69,192.54z M782.21,145.02
				c-0.61-20.45,24.16-41.37,29.38-28.9c1.34,3.2-0.17,6.88-3.37,8.22c-0.83,0.35-1.27,0.38-2.94,0.66
				c-7.77,1.29-17.11,11.76-19,20.4C785.78,147.76,782.29,147.43,782.21,145.02z"/>
		</g>
		<g>
			<path class="st2" d="M301.74,30.81c-32.75-2.73-87.39,103.68-103.31,133.1c4.42-21.04,7-55.77-14.2-58.62
				c-3.16-0.44-6.18,0.1-8.75,1.05c-25.73,9.54-69.38,86.15-83.24,110.42c3.38-21.05,10.2-48.2,16.57-69.7
				c51.75-24.44,88.21-104.31,51.43-102.01c-24.6,1.69-43.31,35.94-52.38,60.08c-5.38,14.22-9.73,28.99-13.33,44.14
				c-46.89,13.38-43.44-35.8-21.62-61.47c2.08-2.44-1.71-5.51-3.68-3c-22.3,28.45-24.45,80.49,24.54,67.72
				c-3.05,13.26-11.1,55.66-10.87,74.08c0.05,3.98,0.2,8.63,3.73,9.32c3.19,0.63,4.65-2.21,5.4-3.72
				c13.33-27.17,55.52-113.72,85.5-118.6c18.62-3.18,8.35,33.93,3.08,77.1c-0.14,1.15-1.25,9.09,3.4,10.08
				c3.83,0.81,5.31-2.03,6.32-4.68C212.86,134.61,277.7,25,303.66,38.56c25.72,11.11-53.85,146.94-55.01,222.38
				c-0.01,0.47,0,0.9,0,1.36c1.14-0.32,2.35-0.54,3.72-0.54c0.83,0,1.59,0.11,2.33,0.23c1.79-24.27,16.47-59.14,23.07-75.75
				C297.64,136.36,341.63,33.96,301.74,30.81z M156.51,53.65c2.47-1.14,6.42-2.29,8.9-1.71c15.43,3.31-8.67,67.19-55.44,91.24
				C116.75,120.75,135.38,63.39,156.51,53.65z"/>
			<path class="st2" d="M474.09,201.53c-0.72,2.62-20.23,40.3-36.21,51.45c-6.39,4.43-10.46,4.11-14.47,2.45
				c0,0.01-0.33-0.19-0.25-0.14c-2.83-1.47-4.7-4.17-5.73-7.27c-5.88-18.48,14.5-52.57,12.2-69.64c-0.86-6.77-3.48-5.23-20.03-12.86
				c-4.78,22.52-22.95,73.41-42.74,86.07c-11.47,7.29-27.26,3.01-21.93-27.78c-6.07,8.51-13.91,15.61-24.28,14.11
				c-13.23-1.81-15.3-23.79-8.45-45.08c15.46-47.26,57.09-46.08,58.24-20.08c0.14,2.81-4.12,3.03-4.26,0.21
				c-0.02-0.27,0.05-0.67,0.09-0.94c1.01-7.57-11.71-20.32-27.32-1.4c-16.43,19.37-28.37,59.14-15.59,60.91
				c10.12,1.57,18.82-9.78,24-18.57c2.7-9.9,7.96-24.54,13.91-32.87c5-6.58,14.55,0,10.79,6.78c-6.14,11.12-8.74,15.57-12.85,25.04
				c-24.41,57.11,17.9,47.47,41.23-25.78c2.29-7.17,4.37-14.86,5.54-22.32c-58.71-28.24-35.34-63.76-12.09-51.75
				c14.22,7.29,17.16,24.18,17.16,39.85c18.32,7.59,23.72,6.97,29,14.41c16.03,22.55-21.18,75.18-13.27,83.45
				c8.54,9.07,36.88-27.35,43.22-49.42C470.78,197.63,474.88,198.83,474.09,201.53z M374.66,120.64c-0.57,1.65-0.69,3.48-0.39,5.28
				c2.18,12.99,21.48,19.48,33.35,24.54C410.53,113.3,379.37,106.24,374.66,120.64z"/>
			<g>
				<path class="st2" d="M343.28,223.42c-0.35,0-0.67-0.07-1-0.1c-0.75,1.07-1.64,2.03-2.74,2.81
					c-16.57,32.3-44.7,65.42-66.84,64.69c-13.07-0.41-18.29-12.72-17.93-30.13c-3.05,0.89-3.01-0.39-6.12,0.25
					c-1.41,50.22,52.51,51.13,95.15-32.18c0.96-1.91,1.81-3.82,2.73-5.72C345.52,223.26,344.45,223.42,343.28,223.42z"/>
			</g>
		</g>
	</g>
</g>
</svg>
