<svg xmlns="http://www.w3.org/2000/svg" viewBox="0 0 650 150.67"><defs><style>.cls-1,.cls-2{fill:#fff;}.cls-2{fill-rule:evenodd;}</style></defs><title>liverpool</title><g id="Capa_2" data-name="Capa 2"><g id="Capa_1-2" data-name="Capa 1"><path class="cls-1" d="M0,.17,0,111.66c0,12.39,10.73,12.56,11.17,12.56h60v-9H16.13c-6.51,0-8.23-5.9-8.23-9V.17Z"/><path class="cls-1" d="M14.5.17c0,11.74,0,98.34,0,102.52a5.29,5.29,0,0,0,5,5.53h51.7V99.34c-3.49,0-14.69-.06-41.43,0a7.07,7.07,0,0,1-5.47-2.17c-2.27-2.52-1.9-6.26-1.88-6.42l0-90.58Z"/><path class="cls-1" d="M28.92.17V87.31c0,4.25,3.28,5,3.41,5l38.83,0,0-9H42.53a5.44,5.44,0,0,1-4.25-1.71,7,7,0,0,1-1.43-5l0-76.4Z"/><path class="cls-1" d="M43.37.17V71.91c0,3.51,1,4.42,4.82,4.42h23V67.45H56.54a5.06,5.06,0,0,1-4.07-1.63,5.8,5.8,0,0,1-1.17-4.33V.17Z"/><path class="cls-1" d="M121,124.08h7.9c0-11.71.05-98.72.06-111.47C129,.27,118.24,0,117.79,0l-60,0V9l55.09,0c6.48,0,8.21,5.92,8.21,9Z"/><path class="cls-1" d="M106.55,124.08h7.88c0-11.74,0-98.34,0-102.53A5.28,5.28,0,0,0,109.53,16H57.81v8.88c2.45,0,8.72,0,21.52,0h19.9a7,7,0,0,1,5.48,2.16c2.25,2.51,1.89,6.26,1.87,6.41Z"/><path class="cls-1" d="M92.1,124.06H100c0-10.61,0-82.58,0-87.12,0-4.12-3.1-4.92-3.44-5H57.79l0,9,28.67,0a5.44,5.44,0,0,1,4.24,1.71,7,7,0,0,1,1.45,5Z"/><path class="cls-1" d="M77.63,124.06h7.92c0-9.45,0-67.27,0-71.74,0-1.74-.29-2.84-.91-3.45s-1.88-1-3.9-1h-23l0,8.88H72.43a5.15,5.15,0,0,1,4.08,1.63,5.72,5.72,0,0,1,1.14,4.32Z"/><polygon class="cls-2" points="236.78 25 247.53 25 247.53 37.08 236.78 37.08 236.78 25 236.78 25"/><polygon class="cls-2" points="236.78 51.34 247.53 51.34 247.53 125.5 236.78 125.5 236.78 51.34 236.78 51.34"/><polygon class="cls-2" points="617.4 24.87 628.14 24.87 628.14 125.5 617.4 125.5 617.4 24.87 617.4 24.87"/><polygon class="cls-2" points="307.49 51.34 285.83 111.03 264.19 51.34 251.94 51.34 278.84 125.5 292.87 125.5 319.76 51.34 307.49 51.34 307.49 51.34"/><path class="cls-2" d="M206.47,113.73c-3.61,0-6.36-3.22-6.36-7.18V25H189.37v83.49c0,9.37,6.78,17,15.35,17h28.17V113.73Z"/><path class="cls-2" d="M410.26,63.28c-3.61,0-6.36,3.21-6.36,7.17l0,55.35H393.16V68.51c0-9.36,6.77-16.94,15.35-16.94h11.27V63.28Z"/><path class="cls-2" d="M387.47,89.26V87c0-21.38-15.9-38.78-35.47-38.78S316.53,65.59,316.53,87s15.91,38.79,35.47,38.79c16.51,0,30.61-12.14,34.47-29.59H376.06c-3.58,11.18-13.2,18.7-24.06,18.7-13.2,0-24.13-10.86-25.43-25.61ZM327.74,78.35C331.31,66.6,341.18,59.09,352,59.09s20.66,7.51,24.23,19.26Z"/><path class="cls-2" d="M576.23,47.78c-12.9,0-24.2,7.45-30.53,18.63-6.28-11.18-17.61-18.63-30.51-18.63S491,55.23,484.68,66.41c-6.33-11.18-17.63-18.63-30.54-18.63-19.78,0-35.85,17.55-35.85,39.19v63.7h10.85V115a34.17,34.17,0,0,0,25,11.15c12.91,0,24.21-7.46,30.54-18.63,6.32,11.17,17.63,18.63,30.51,18.63s24.23-7.46,30.51-18.63c6.33,11.17,17.63,18.63,30.53,18.63,19.81,0,35.86-17.55,35.86-39.21S596,47.78,576.23,47.78ZM454.14,114.45C440.31,114.45,429,102.13,429,87s11.3-27.47,25.13-27.47S479.27,71.82,479.27,87,468,114.45,454.14,114.45Zm61.05,0c-13.86,0-25.12-12.32-25.12-27.48S501.33,59.5,515.19,59.5,540.33,71.82,540.33,87s-11.27,27.48-25.14,27.48Zm61,0c-13.84,0-25.14-12.32-25.14-27.48s11.3-27.47,25.14-27.47S601.36,71.82,601.36,87s-11.28,27.48-25.13,27.48Z"/><path class="cls-2" d="M641.42,42.51c-4.76,0-8.58-4.21-8.58-9.4s3.82-9.36,8.58-9.36S650,27.93,650,33.11s-3.84,9.4-8.58,9.4Zm0-17.21c-4,0-7.16,3.49-7.16,7.81s3.2,7.85,7.16,7.85,7.17-3.52,7.17-7.85-3.22-7.81-7.17-7.81Zm-3.76,2.93h4.08a2.72,2.72,0,0,1,3.06,2.63,2.76,2.76,0,0,1-2.64,2.92v0c.79.31,1.38,1.17,2.13,2.52l1.11,1.95h-1.81l-.81-1.56C641.61,34.47,641.17,34,640,34h-.89V38.3h-1.49V28.23Zm3.63,4.4c1.14,0,1.91-.48,1.91-1.52a1.49,1.49,0,0,0-1.64-1.52h-2.41v3Z"/></g></g></svg>