<svg xmlns="http://www.w3.org/2000/svg" viewBox="0 0 343.75 98.41"><defs><style>.cls-1{fill:#fff;fill-rule:evenodd;}</style></defs><title>palacio_hierro</title><g id="Capa_2" data-name="Capa 2"><g id="Layer_1" data-name="Layer 1"><path class="cls-1" d="M86.13,80.33C79.55,89,77,91.2,73.69,91.2c-2.73,0-3.94-1.55-3.68-4.69C66.78,90,65.31,91,63,91c-3.3,0-4.7-2.82-3.67-7C61.2,76.5,69.48,68.25,75.22,68.25c1.75,0,2.54.93,2.83,3.23l1.74-2.77a18.81,18.81,0,0,0,2.92.16,12.72,12.72,0,0,0,2.47-.16l-1,1.74c-.59,1-1,1.84-2.7,4.74-.74,1.14-1.34,2.29-1.94,3.27-1.5,2.32-2.62,4.31-3.43,5.84-.8,1.32-1.38,2.21-1.74,2.73a6.29,6.29,0,0,0-.69,1.54c-.16.6.35,1.15,1.28,1.15,2.16,0,5-2.74,10.9-10.9l1.14.36-.88,1.15Zm-11-10.9c-1,0-2,.86-3.92,3.62-1.86,2.59-3.81,5.58-5.32,8.11a20.55,20.55,0,0,0-3,6.28c-.36,1.37.21,2.28,1.21,2.21,1.76,0,4.23-2.23,7.09-6.53,2.74-3.82,4.87-8,5.39-10.21.52-1.88-.22-3.48-1.43-3.48Z"/><path class="cls-1" d="M98.34,80l-2.62,3.32c-4.14,5.65-7,7.85-10.15,7.85-2.76,0-4.14-2-3.41-5A27.27,27.27,0,0,1,85,80.33L103,49.85l.73.07h1.66a25.34,25.34,0,0,0,3-.16L88.76,83a36.18,36.18,0,0,0-1.87,3.45,5.46,5.46,0,0,0-1,2.14c-.2.81.06,1.24.89,1.24,1.15,0,2.65-1,4.79-3.25a86.37,86.37,0,0,0,5.61-7l.66-.81,1.11.36c-.32.45-.62.7-.65.85Z"/><path class="cls-1" d="M122.43,80.33C115.78,89,113.26,91.2,110,91.2c-2.75,0-3.94-1.55-3.73-4.69C103,90,101.53,91,99.27,91c-3.37,0-4.77-2.82-3.68-7,1.87-7.51,10.17-15.76,15.9-15.76,1.77,0,2.58.93,2.8,3.23L116,68.71a19.64,19.64,0,0,0,3,.16,13.6,13.6,0,0,0,2.52-.16l-1,1.74c-.61,1-1.06,1.84-2.81,4.74-.69,1.14-1.3,2.29-1.89,3.27-1.49,2.32-2.57,4.31-3.42,5.84-.76,1.32-1.37,2.21-1.74,2.73a5.65,5.65,0,0,0-.66,1.54c-.2.6.39,1.15,1.23,1.15,2.25,0,5-2.74,10.93-10.9l1.14.36-.83,1.15Zm-11-10.9c-1,0-2,.86-4,3.62-1.81,2.59-3.8,5.58-5.32,8.11a23.63,23.63,0,0,0-3,6.28c-.33,1.37.2,2.28,1.22,2.21,1.8,0,4.22-2.23,7.08-6.53,2.77-3.82,4.89-8,5.42-10.21.46-1.88-.17-3.48-1.41-3.48Z"/><path class="cls-1" d="M139.62,80.72c-2.93,4.08-4.74,6-7.29,7.85a13.19,13.19,0,0,1-7.06,2.63c-4.18,0-6.31-3.19-5.17-7.76,1.82-7.11,10.45-15.07,16.3-15.07,2.92,0,4.32,1.87,3.55,4.68-1,3.89-5.16,4.65-4.58,2.14.5-2.18,2.83-.7,3.22-2.28.49-2-.39-3.39-2-3.39-1.09,0-2.41.77-3.85,2.51-3.32,4.12-8.24,12.5-9,15.41C123.39,89,124.25,90,126,90c2.56,0,6-2,8.79-5.06,1.32-1.52,3-3.64,4.83-6.14l1.17.36-1.17,1.54Z"/><path class="cls-1" d="M151.1,81.46c-5.34,7.15-8.33,9.74-11.53,9.74a3.76,3.76,0,0,1-3.84-5c.33-1,.66-1.62,2.47-4.89l7.38-12.61a15.85,15.85,0,0,0,2.6.16,17.35,17.35,0,0,0,2.77-.16l-9.36,15.88-1,1.92a17.13,17.13,0,0,0-1,2.1,1.08,1.08,0,0,0,1,1.31c1.37,0,3.22-1.35,5.71-4.24a77.36,77.36,0,0,0,5.35-6.86l1.13.36-1.66,2.28Zm-.91-14.92c-1.54,0-2.33-.72-2.06-1.89A4.06,4.06,0,0,1,152,62.08c1.45,0,2.25.81,2,2a3.78,3.78,0,0,1-3.75,2.5Z"/><path class="cls-1" d="M164.07,84.44c-3.51,4.66-6.52,6.76-9.58,6.76-4,0-6.31-3.08-5.3-7.11,1.86-7.4,10.65-15.68,16.78-15.68,3.06,0,4.53,2.09,3.66,5.48-.53,2-1.42,4-3.9,8.11l-.79,1.3c1.57,0,2.73-.92,5.25-4.48l1.12.36c-3,4.17-4.39,5.26-7.24,5.26Zm-2.71-3c.61-2.51,2.84-4.52,4.89-4.52a3.32,3.32,0,0,1,.85.08,8.28,8.28,0,0,0,1.11-2.67c.74-2.87,0-4.75-1.91-4.75s-3,1.17-6.08,5.38a62.77,62.77,0,0,0-4.87,7.59,19.45,19.45,0,0,0-2.37,5,1.77,1.77,0,0,0,1.88,2.5c2.49,0,5.18-2.07,8-5.78a2.15,2.15,0,0,1-1.53-2.84Z"/><path class="cls-1" d="M202.3,80.89c-6.44,8.41-8.54,10.31-11.88,10.31-2.86,0-4.17-1.55-3.69-4.73-3.07,3.55-4.8,4.59-7,4.59-3.38,0-4.84-2.88-3.83-7,1.91-7.59,10.44-15.94,16.19-15.94,1.89,0,2.71,1.09,2.79,3.33l12.91-21.82a6.59,6.59,0,0,0,2.35.26,12.26,12.26,0,0,0,3.07-.26L193,84l-1.37,2.35a5.75,5.75,0,0,0-1.08,2.12c-.19.69.29,1.24,1.08,1.24,1.88,0,4.1-2.14,10-9.84l.8-1.06,1.14.36-1.31,1.71ZM192,69.52c-1.42.08-2.37,1.07-5.39,5.67-1.14,1.83-2.42,3.76-3.8,6.13a34.79,34.79,0,0,0-3.13,6.46,1.3,1.3,0,0,0,1.22,1.75c1.44,0,3.8-2.09,6.72-6.09,2.81-3.71,5-7.94,5.64-10.62.51-2,0-3.39-1.26-3.3Z"/><path class="cls-1" d="M51.36,29.45l-1.94,2.49c-3.13,4.21-5.22,5.77-7.54,5.77-2,0-3-1.48-2.49-3.6a16.41,16.41,0,0,1,2.11-4.35L54.79,7.18l.57.08h1.22a14.8,14.8,0,0,0,2.19-.15L44.26,31.71a21.25,21.25,0,0,0-1.4,2.53,4.45,4.45,0,0,0-.73,1.66c-.09.5.13.79.66.79.85,0,2-.69,3.53-2.33a55.17,55.17,0,0,0,4.19-5.19l.48-.54.86.22c-.22.32-.49.51-.49.6Z"/><path class="cls-1" d="M273.34,81.46C268,88.61,265,91.2,261.83,91.2a3.73,3.73,0,0,1-3.82-5c.23-1,.59-1.62,2.45-4.89l7.34-12.61a15.9,15.9,0,0,0,2.61.16,17.47,17.47,0,0,0,2.77-.16L263.8,84.59l-1,1.92a23,23,0,0,0-1,2.1,1,1,0,0,0,1,1.31c1.28,0,3.22-1.35,5.66-4.24a65.11,65.11,0,0,0,5.38-6.86l1.14.36-1.68,2.28Zm-.91-14.92c-1.48,0-2.32-.72-2-1.89a4.06,4.06,0,0,1,3.81-2.57c1.4,0,2.25.81,2,2a3.88,3.88,0,0,1-3.78,2.5Z"/><path class="cls-1" d="M308.16,80.55a56,56,0,0,1-5.81,7.11c-2,2.19-4.6,3.54-6.61,3.54a3.59,3.59,0,0,1-3.7-4.6,12.66,12.66,0,0,1,1.79-3.74c.77-1.06,1.79-2.69,3.22-4.77,2.43-3.35,3.43-5.27,3.7-6.49.25-.83.09-1.31-.68-2.08l-.87,1.15-2.47,3.68L294,77.9l-.87,1.28-1.18-.36.89-1.22c1.34-1.89,2.36-3.25,2.89-3.92l2.62-3.7.95-1.36a2.9,2.9,0,0,1-1.21-3A4.57,4.57,0,0,1,302,62.3c1.18,0,1.7.59,1.44,1.67s-.78,2-2.37,4.28c3.27,2.25,4,3.12,3.42,5.41-.39,1.32-1.08,2.79-3.18,6.07-1.53,2.4-2.47,4-3,4.86l-1.67,2.61a5.47,5.47,0,0,0-.73,1.72.83.83,0,0,0,.82,1.1c1,0,2.5-.92,3.93-2.19a52.12,52.12,0,0,0,6.52-8l.83-1.06,1.15.36-1,1.37Z"/><path class="cls-1" d="M324.19,80.55c-3.47,4.63-4.07,5.45-5.7,7.11-2.16,2.19-4.68,3.54-6.69,3.54a3.59,3.59,0,0,1-3.71-4.6,13.23,13.23,0,0,1,1.8-3.74c.75-1.06,1.82-2.69,3.22-4.77,2.38-3.35,3.39-5.27,3.75-6.49a2,2,0,0,0-.68-2.08l-.87,1.15-2.45,3.68L310,77.9l-.86,1.28-1.08-.36.81-1.22c1.39-1.89,2.38-3.25,2.84-3.92l2.61-3.7,1-1.36a2.82,2.82,0,0,1-1.22-3,4.46,4.46,0,0,1,3.92-3.29c1.2,0,1.71.59,1.47,1.67s-.86,2-2.42,4.28c3.28,2.25,4,3.12,3.41,5.41-.31,1.32-1.06,2.79-3.19,6.07-1.47,2.4-2.43,4-3,4.86l-1.63,2.61a7.41,7.41,0,0,0-.82,1.72.91.91,0,0,0,.88,1.1c1,0,2.58-.92,4-2.19a55.78,55.78,0,0,0,6.54-8l.78-1.06,1.16.36-1,1.37Z"/><path class="cls-1" d="M336.43,84.44C333,89.1,330,91.2,326.93,91.2c-4.08,0-6.34-3.08-5.38-7.11,1.91-7.4,10.73-15.68,16.82-15.68,3.06,0,4.58,2.09,3.65,5.48-.47,2-1.38,4-3.86,8.11l-.78,1.3c1.54,0,2.66-.92,5.23-4.48l1.14.36c-3.11,4.17-4.42,5.26-7.32,5.26Zm-2.66-3c.63-2.51,2.79-4.52,4.89-4.52a4.08,4.08,0,0,1,.87.08,11.91,11.91,0,0,0,1.11-2.67c.69-2.87-.11-4.75-1.94-4.75s-3.09,1.17-6.07,5.38a70.77,70.77,0,0,0-4.93,7.59c-1.61,2.86-2.1,3.94-2.34,5a1.8,1.8,0,0,0,1.91,2.5c2.45,0,5.16-2.07,8-5.78a2.16,2.16,0,0,1-1.45-2.84Z"/><path class="cls-1" d="M89.8,29.77c-2.81-6.15-11.06-.62-11.06-.62C57.32,18.71,40.94,48.9,40.94,48.9c-8.21-7-22.9-.16-22.9-.16C-4.92,61.69.57,82.27.57,82.27c4.39,25.12,36,13.42,36,13.42C58.19,88.56,65,59.06,65,59.06,67.34,48.74,78.74,31.5,78.74,31.5c8.08,4.56,6.77,13.83,6.77,13.83C86.62,59,67.77,60.14,67.77,60.14,89.31,62.14,89,45.84,89,45.84c.76-9.47-8.2-15.84-8.2-15.84,4.83-4.8,9-.23,9-.23Zm-33.22,30S45.63,92.08,26.85,95.84c0,0-25.22,5.36-24.09-19.75,0,0,1.11-25.11,26.75-29.19,0,0,6.42-.58,10.79,3.59-.84,2.5-2.58,8.13-1.06,10.69,0,0,.48-7.34,1.8-9.94,3.22,3.79,4.8,10.84.57,23.77,0,0-3.56,8.19-13.66,13.77,0,0,24.16-8.34,16.61-34.87a9.36,9.36,0,0,0-2.87-4.22s18-29.62,35.24-18.44c0,0-14.31,13.78-20.35,28.53Z"/><path class="cls-1" d="M17,1.32C22.39-1,30.08,4,30.08,4A15.34,15.34,0,0,1,37.85.15c10.8-1.22,8.47,5.34,8.47,5.34-1.9,4.15-6.52,4.2-6.52,4.2-4.92.8-9.33-2.81-9.33-2.81-1.67,2.89.65,3.84.65,3.84,4.94,0,3.92,2.54,3.92,2.54-2,2.23-3.92-.55-3.92-.55-.53-.51-2.14-.08-2.14-.08A20.62,20.62,0,0,0,13.56,24.82c-4.87,12.82,7.68,12.75,7.68,12.75,7.56.63,10.52-3.21,10.52-3.21,9.38-9,3.84-13.66,3.84-13.66C27.49,13,17.3,28.26,17.3,28.26,27,10.09,37.85,19.85,37.85,19.85c9.23,10.39-8,17.79-8,17.79C8.28,45.62,8.74,27.1,8.74,27.1c.59-14.28,20.35-16.16,20.35-16.16-1-1.08,0-5.79,0-5.79a18.59,18.59,0,0,0-9.79-3.6c-7.26.31-2.93,5.86-2.93,5.86-4-4.69.6-6.09.6-6.09ZM41.14,7.51c6.92-1.29,3.42-4.95,3.42-4.95C37.92-2.32,31.88,5.08,31.88,5.08c1.8,3.86,9.26,2.43,9.26,2.43Z"/><path class="cls-1" d="M284.61,31.71s-16.23,9.89-30.4,33.1l-6.86.09s2.26-13.29,21.54-32.58l-5.6,2.44s-15.38,1.41-22-.73c0,0-10.13-2-14.15,6.11,0,0-5.81,12.18,6.35,12.74,0,0,7.26,1.48,13.52-7.65,0,0-6,6.38-11.42,6.54,0,0-10.18,1.74-8.91-8,0,0,2.57-8.84,9.9-8.44,0,0,5.43.12,6.48.87a28.49,28.49,0,0,0,16.93.66s-16.52,15.43-22.34,28.89h-6.28V67.3h4.9s-7,18.55-20.65,27.42c0,0-5.32,4.4-18.54-1.53a19.65,19.65,0,0,0,18.39,3.88s17.27-2.24,30.59-30.24h6.59S245.75,77,245.75,85c0,0-1.16,17.26,16.26,8.55,0,0-20,9.63-1.19-26.81h3.7V65.16h-2.29s3.22-12.61,22.38-33.45Z"/><path class="cls-1" d="M216.55,85.28C213.14,89,209.2,91,205.52,91c-4.23,0-6.55-2.88-5.59-6.91,1.81-7.14,10.86-15.81,16.61-15.81,3,0,4.54,2.17,3.76,5.31-1.38,5.4-9.44,5.44-12.79,5.76-.46,1-3,6.52-3.25,7.34-.56,2.12.08,3.26,2,3.26,4,0,8.3-3.35,13.65-10.32l.63-1,1.16.32a48.58,48.58,0,0,1-5.13,6.29Zm1.6-11.78c3-4.58-2.06-3.74-2.06-3.74-5,1.5-7.33,8-7.33,8,7,.68,9.39-4.22,9.39-4.22Z"/><path class="cls-1" d="M288.07,85.28C284.55,89,280.61,91,277,91c-4.22,0-6.6-2.88-5.56-6.91,1.77-7.14,10.8-15.81,16.53-15.81,3,0,4.58,2.17,3.79,5.31C290.36,79,282.35,79,279,79.35c-.49,1-3,6.52-3.28,7.34-.46,2.12.09,3.26,2,3.26,4,0,8.34-3.35,13.69-10.32l.69-1,1.12.32a64.33,64.33,0,0,1-5.09,6.29ZM289.6,73.5c3-4.58-2.06-3.74-2.06-3.74-5,1.5-7.33,8-7.33,8,7,.68,9.39-4.22,9.39-4.22Z"/></g></g></svg>