<svg xmlns="http://www.w3.org/2000/svg" viewBox="0 0 650 163.31"><defs><style>.cls-1{fill:#fff;}</style></defs><title>uniko</title><g id="Capa_2" data-name="Capa 2"><g id="Capa_1-2" data-name="Capa 1"><path class="cls-1" d="M73.06,41.59v79.57c0,21.21-12.38,34.39-32.31,34.39-20.12,0-32.12-12.85-32.12-34.39V41.59H0v80.08c0,25.68,15.6,41.64,40.75,41.64,24.88,0,40.94-16.34,40.94-41.64V41.59Z"/><path class="cls-1" d="M233,41.59v96.86c0,1.87.15,4.27.28,6.12-1.12-1.68-2.64-3.89-3.87-5.52l-76-98.57-.23-.28h-3.18V161.91H158V65c0-1.88-.15-4.27-.29-6.12,1.13,1.68,2.64,3.9,3.89,5.53l76,98.57.21.29h3.18V41.59Z"/><rect class="cls-1" x="311.22" y="41.59" width="8.61" height="120.32"/><path class="cls-1" d="M400.21,161.19H391.5V0h8.71V113.4c0,3.8-.45,7.59-.66,9.82L450,70.1h10.27l-36.62,38.61,43.09,52.48H456l-38.39-46.67-17.41,18.31Z"/><path class="cls-1" d="M588.45,40.2c-35.09,0-61.56,26.46-61.56,61.54s26.47,61.57,61.56,61.57S650,136.83,650,101.74,623.55,40.2,588.45,40.2Zm0,115.18c-30.09,0-52.76-23.06-52.76-53.64s22.67-53.62,52.76-53.62,52.75,23.06,52.75,53.62S618.52,155.38,588.45,155.38Z"/></g></g></svg>