<?xml version="1.0" encoding="utf-8"?>
<!-- Generator: Adobe Illustrator 23.0.0, SVG Export Plug-In . SVG Version: 6.00 Build 0)  -->
<svg version="1.1" id="Capa_1" xmlns="http://www.w3.org/2000/svg" xmlns:xlink="http://www.w3.org/1999/xlink" x="0px" y="0px"
	 viewBox="0 0 1100 51.9" style="enable-background:new 0 0 1100 51.9;" xml:space="preserve">
<style type="text/css">
	.st0{fill:#FFFFFF;}
</style>
<title>hr</title>
<g>
	<g>
		<path class="st0" d="M558.7,26.4c0,5.3-4.3,9.7-9.7,9.7s-9.7-4.3-9.7-9.7s4.3-9.7,9.7-9.7S558.7,21.1,558.7,26.4z"/>
	</g>
	<g>
		<g>
			<g>
				<path class="st0" d="M1069.6,26.4c0,5.3,4.3,9.7,9.7,9.7c5.3,0,9.7-4.3,9.7-9.7s-4.3-9.7-9.7-9.7
					C1074,16.7,1069.6,21.1,1069.6,26.4z"/>
			</g>
		</g>
		<g>
			<rect x="542.9" y="24.3" class="st0" width="535.4" height="4.1"/>
		</g>
		<g>
			<g>
				<rect x="28.4" y="24.3" class="st0" width="535.4" height="4.1"/>
			</g>
			<g>
				<g>
					<path class="st0" d="M28.4,26.4c0,5.3-4.3,9.7-9.7,9.7S9,31.7,9,26.4s4.3-9.7,9.7-9.7S28.4,21.1,28.4,26.4z"/>
				</g>
			</g>
		</g>
	</g>
</g>
</svg>
