<svg xmlns="http://www.w3.org/2000/svg" viewBox="0 0 120.61 128.67"><defs><style>.cls-1,.cls-2{fill:#fff;}.cls-2{stroke:#fff;stroke-miterlimit:10;stroke-width:1.3px;}</style></defs><title>mova_eventos</title><g id="Capa_2" data-name="Capa 2"><g id="Capa_1-2" data-name="Capa 1"><g id="Footer"><path class="cls-1" d="M24.87,100.83,36.09,75.37h9.46v1H44.41a7.51,7.51,0,0,0-3,.37,2,2,0,0,0-.94,1.39A28.71,28.71,0,0,0,40.26,83V98.13a38.21,38.21,0,0,0,.18,4.75,2.52,2.52,0,0,0,.92,1.68,5.16,5.16,0,0,0,2.83.54h1.36v1H30.82v-1h1.09a5.27,5.27,0,0,0,2.71-.5,2.32,2.32,0,0,0,1-1.55,33.89,33.89,0,0,0,.21-4.92V78.55l-12.2,27.59H22.53L10.26,78.55v18a36.2,36.2,0,0,0,.23,5A3.93,3.93,0,0,0,11.9,104a5.5,5.5,0,0,0,3.31,1.14v1H4.2v-1A5.57,5.57,0,0,0,7.41,104a3.85,3.85,0,0,0,1.51-2.36,31.82,31.82,0,0,0,.27-5.23V83A32.05,32.05,0,0,0,9,78.3a2.13,2.13,0,0,0-.91-1.48,7.14,7.14,0,0,0-3-.4H4.2v-1h9.39Z"/><path class="cls-1" d="M48.06,95.23a10.3,10.3,0,0,1,3.33-8,12,12,0,0,1,8.32-3,12.22,12.22,0,0,1,8.4,3,10.32,10.32,0,0,1,3.37,8.15,10.7,10.7,0,0,1-3.22,8.1,11.76,11.76,0,0,1-8.5,3.1,11.74,11.74,0,0,1-8.41-3.1A10.71,10.71,0,0,1,48.06,95.23Zm3.63.11c0,3.47.7,6.06,2.08,7.8s3.45,2.61,6.22,2.61a7,7,0,0,0,5.75-2.61c1.4-1.74,2.11-4.33,2.11-7.77s-.69-5.91-2.08-7.69a7.18,7.18,0,0,0-6-2.68,7.16,7.16,0,0,0-6,2.61C52.39,89.36,51.69,91.93,51.69,95.34Z"/><path class="cls-1" d="M83.13,106.67h-1L74.74,89.52c-.14-.31-.36-.84-.65-1.59a4.86,4.86,0,0,0-1.31-2,3.73,3.73,0,0,0-2.2-.56V84.6h9.27v.73a6.92,6.92,0,0,0-2.34.26,1,1,0,0,0-.59,1,7.74,7.74,0,0,0,.74,2.16L83.85,103l5-11.91a14.08,14.08,0,0,0,1.25-3.9q0-1.81-2.58-1.89V84.6h6.56v.73a2.66,2.66,0,0,0-1.76.72,5.44,5.44,0,0,0-1.32,2l-1.44,3.38Z"/><path class="cls-1" d="M108.23,98.2H100l-.56,1.37a13.74,13.74,0,0,0-1.24,3.87,1.72,1.72,0,0,0,.66,1.47,2.67,2.67,0,0,0,1.69.5v.73h-6.4v-.73a3.44,3.44,0,0,0,2.12-1A12.14,12.14,0,0,0,98,101.1c.06-.16.32-.78.77-1.85l6.26-15h.61l7.21,17.11,1,2.26a3,3,0,0,0,.89,1.19,3.26,3.26,0,0,0,1.68.55v.73H108v-.73a6.19,6.19,0,0,0,2.11-.23.88.88,0,0,0,.54-.91,9,9,0,0,0-.73-2.08Zm-.29-.71-3.8-9.18-3.8,9.18Z"/><path class="cls-1" d="M106.77,82.73l-2.42-2c-.95-.79-1.77-1.49-2-1.76-.06-.07-.1-.08-.1-.13s0,0,.06-.08a18.78,18.78,0,0,1,1.47-1.27s.06,0,.11.09A13.83,13.83,0,0,1,104.9,79l2.38,3.7Z"/><path class="cls-1" d="M115.35,64.33a9.44,9.44,0,0,1-2.79-3.76l-3.08-7L94.84,18.8V16.85c0-5.56.18-9.08.54-10.58a4.35,4.35,0,0,1,2.08-3.1q1.58-.82,6.6-.83h2.52V0H86.93V0H85V0L65.42,46.77c-1.4,3.36-2.21,5.28-2.4,5.78-.62,1.59-1.22,3-1.79,4.26L35.65,0H14.8V2.34h1.86q5.19,0,6.73.9a4.64,4.64,0,0,1,2,3.28c.32,1.58-11.25,38.35-11.85,40.25s-2.19,6.85-3.21,9.67c-.78,2.17-2.62,6.23-3.62,7.26C5.1,65.35,2.92,65.84,0,66v2.32H26.9V66c-3.16-.2-6.59-.11-8.46-1.43a6.66,6.66,0,0,1-3.12-5.21c-.11-2.6,2.41-11.5,4.06-17.9C23,27.55,28.25,7.07,28.25,7.07L54.12,65.25c-.24.09-.46.19-.71.27a16.52,16.52,0,0,1-2.32.52v2.29h22.4V66H70.61a8.36,8.36,0,0,1-4.79-1.53,5.44,5.44,0,0,1-2.06-4.6q0-2.84,3.88-12.13l1.76-4.27H95L100.18,56c1.53,3.62,2.29,5.78,2.29,6.51a2.79,2.79,0,0,1-1.72,2.86,7.42,7.42,0,0,1-1.66.43,31.87,31.87,0,0,1-4.92.29v2.29h26.44V66A10.16,10.16,0,0,1,115.35,64.33ZM85,41.25H70.33L82.22,12.52l1.93,4.67L94,41.06l.08.19Z"/><path class="cls-1" d="M41.34,123.82H36.5c0,.33,0,.58,0,.74A5.26,5.26,0,0,0,37,127.3a1.89,1.89,0,0,0,1.71.92,2.24,2.24,0,0,0,2.19-1.38h.4a2.42,2.42,0,0,1-1.07,1.35,3.37,3.37,0,0,1-1.76.48,3.28,3.28,0,0,1-1.66-.44A3.59,3.59,0,0,1,35.57,127a3.63,3.63,0,0,1-.51-2,4,4,0,0,1,1-2.73,3.11,3.11,0,0,1,2.42-1.09,2.68,2.68,0,0,1,2.11.84A2.81,2.81,0,0,1,41.34,123.82Zm-1.48-.35a2.36,2.36,0,0,0,0-.35,1.46,1.46,0,0,0-1.51-1.56c-1,0-1.64.63-1.84,1.91Z"/><path class="cls-1" d="M46.05,128.67h-.49l-2.46-5.56a4.7,4.7,0,0,0-.58-1,1,1,0,0,0-.69-.24v-.39H45v.39a1.85,1.85,0,0,0-.71.09.31.31,0,0,0-.19.32,3.16,3.16,0,0,0,.34.9l1.87,4.21L48,123.62a3.92,3.92,0,0,0,.4-1.17q0-.56-.84-.6v-.39h2.33v.39a1,1,0,0,0-.72.36,7.12,7.12,0,0,0-.82,1.51Z"/><path class="cls-1" d="M56.37,123.82H51.53c0,.33,0,.58,0,.74a5.26,5.26,0,0,0,.57,2.74,1.89,1.89,0,0,0,1.71.92A2.24,2.24,0,0,0,56,126.84h.4a2.42,2.42,0,0,1-1.07,1.35,3.37,3.37,0,0,1-1.76.48,3.28,3.28,0,0,1-1.66-.44A3.59,3.59,0,0,1,50.6,127a3.63,3.63,0,0,1-.5-2,4,4,0,0,1,1-2.73,3.13,3.13,0,0,1,2.42-1.09,2.68,2.68,0,0,1,2.11.84A2.81,2.81,0,0,1,56.37,123.82Zm-1.48-.35a2.36,2.36,0,0,0,0-.35,1.46,1.46,0,0,0-1.51-1.56c-1,0-1.64.63-1.84,1.91Z"/><path class="cls-1" d="M59.43,121.18h.23a4.72,4.72,0,0,1,.22,1.43,4.42,4.42,0,0,1,1.27-1.07,2.92,2.92,0,0,1,1.4-.36,2.42,2.42,0,0,1,1.35.35,1.53,1.53,0,0,1,.68.85,5.06,5.06,0,0,1,.16,1.47V126a13.49,13.49,0,0,0,0,1.46.51.51,0,0,0,.27.39,1.71,1.71,0,0,0,.82.13v.39H62.33V128h.16a1.22,1.22,0,0,0,.8-.17.7.7,0,0,0,.21-.42c0-.16,0-.62,0-1.39v-2.24a6.15,6.15,0,0,0-.08-1.17A1.13,1.13,0,0,0,63,122a1.41,1.41,0,0,0-.89-.27,2.1,2.1,0,0,0-1.18.37,3.86,3.86,0,0,0-1.06,1.1V126a13.49,13.49,0,0,0,0,1.46.55.55,0,0,0,.28.39A1.76,1.76,0,0,0,61,128v.39H57.52V128a1.93,1.93,0,0,0,.81-.11.51.51,0,0,0,.28-.36,10.1,10.1,0,0,0,.06-1.51V124a12.6,12.6,0,0,0-.05-1.47.55.55,0,0,0-.27-.39,1.93,1.93,0,0,0-.83-.13v-.39A9.68,9.68,0,0,0,59.43,121.18Z"/><path class="cls-1" d="M71,121.84H68.91V126a7,7,0,0,0,.08,1.3,1,1,0,0,0,.36.54,1,1,0,0,0,.59.2,1.27,1.27,0,0,0,1.06-.69l.27.16a1.85,1.85,0,0,1-.77.84,2.14,2.14,0,0,1-1,.28,1.68,1.68,0,0,1-1.07-.35,1.54,1.54,0,0,1-.58-.85,9,9,0,0,1-.11-1.69v-3.93h-1v-.38a1.75,1.75,0,0,0,1.24-.59,2.79,2.79,0,0,0,.7-1.59h.27v2.17H71Z"/><path class="cls-1" d="M71.94,124.92A3.65,3.65,0,0,1,73,122.25a3.58,3.58,0,0,1,2.62-1.07,3.54,3.54,0,0,1,2.63,1.08,3.63,3.63,0,0,1,1.07,2.66,3.58,3.58,0,0,1-1.08,2.75,3.73,3.73,0,0,1-2.62,1,3.62,3.62,0,0,1-2.6-1A3.58,3.58,0,0,1,71.94,124.92Zm1.4,0a4.17,4.17,0,0,0,.6,2.58,2.31,2.31,0,0,0,3.39,0,4.26,4.26,0,0,0,.58-2.58,4.45,4.45,0,0,0-.58-2.61,2.24,2.24,0,0,0-3.4,0A4.4,4.4,0,0,0,73.34,125Z"/><path class="cls-1" d="M80.66,128.61v-2.27H81c.39,1.31,1.07,2,2.06,2a1.16,1.16,0,0,0,1-.39,1.32,1.32,0,0,0,.32-.85,1.23,1.23,0,0,0-.34-.89,5.51,5.51,0,0,0-1.35-.84,5,5,0,0,1-1.5-1,1.68,1.68,0,0,1-.46-1.21,2,2,0,0,1,.49-1.3,1.66,1.66,0,0,1,1.38-.63,1.86,1.86,0,0,1,1.5.74,2.58,2.58,0,0,0,.33-.62h.31v2.14h-.31a2.85,2.85,0,0,0-.66-1.32,1.47,1.47,0,0,0-1.14-.56,1.13,1.13,0,0,0-.83.32,1,1,0,0,0-.31.73,1,1,0,0,0,.35.78,4.37,4.37,0,0,0,1.29.77,3.7,3.7,0,0,1,1.76,1.27,2.59,2.59,0,0,1,.33,1.2,1.94,1.94,0,0,1-.6,1.48,2.13,2.13,0,0,1-1.5.56,2.28,2.28,0,0,1-1.7-.78,1.87,1.87,0,0,0-.38.72Z"/><line class="cls-2" x1="4.27" y1="113.71" x2="115.89" y2="113.71"/></g></g></g></svg>